# xmcd CD database file
#
# Track frame offsets:
#	182
#	10350
#	20215
#	31880
#	45775
#	58867
#	69317
#	80510
#	93017
#	103425
#	114932
#	123592
#	133085
#	143037
#	155142
#	164075
#	174890
#	185390
#	197105
#	209445
#	220245
#	232605
#	244640
#	255145
#	265757
#	276842
#	286515
#
# Disc length: 3950 seconds
#
# Revision: 0
# Processed by: cddbd v1.5.2PL0 Copyright (c) Steve Scherf et al.
# Submitted via: CDex 1.81
#
DISCID=760f6c1b
DTITLE=Cowboy Copas - Circle Rock
DYEAR=1900
DGENRE=Country
TTITLE0=Circle Rock
TTITLE1=My Little Red Wagon
TTITLE2=Settin' Flat On Ready
TTITLE3=Fillipino Baby
TTITLE4=Tragic Romance
TTITLE5=Flat Top Guitar
TTITLE6=Sunny Tennessee
TTITLE7=Cope's Wildflower
TTITLE8=Alabam
TTITLE9=Louisian
TTITLE10=Blue Kimono
TTITLE11=Hold Me Just A Little
TTITLE12=South Pacific Shore
TTITLE13=Tennessee Flat Guitar
TTITLE14=Cryin' Doll
TTITLE15=Sal
TTITLE16=Sold The Farm
TTITLE17=Hangman's Boogie
TTITLE18=Those Gone and Left Me Blues
TTITLE19=Sleepy Eyed John
TTITLE20=Three Strikes and You're Out
TTITLE21=Flat Top Pickin'
TTITLE22=Teenage Blues
TTITLE23=Country Boogie
TTITLE24=Railroad Honkeytonk
TTITLE25=String Boogie
TTITLE26=Moonshine Boogie
EXTD=
EXTT0=
EXTT1=
EXTT2=
EXTT3=
EXTT4=
EXTT5=
EXTT6=
EXTT7=
EXTT8=
EXTT9=
EXTT10=
EXTT11=
EXTT12=
EXTT13=
EXTT14=
EXTT15=
EXTT16=
EXTT17=
EXTT18=
EXTT19=
EXTT20=
EXTT21=
EXTT22=
EXTT23=
EXTT24=
EXTT25=
EXTT26=
PLAYORDER=
